<svg width="104" height="100" viewBox="0 0 104 100" fill="none" xmlns="http://www.w3.org/2000/svg">
<path d="M64.5191 15.1446L54.6017 22.8291V15.1446H42.8V2H78.8V15.1446H64.5191Z" fill="white"/>
<path d="M48.9 8.37007H49.3M55.5 8.37007H66M71.9 8.37007H72.8M54.6017 22.8291L64.5191 15.1446H78.8V2H42.8V15.1446H54.6017V22.8291Z" stroke="black" stroke-width="3" stroke-linecap="square"/>
<path d="M17.9 68.029H14.5V61.0523H21.4V53.8733C21.4 50.6377 21.6992 49.6085 23.7 48.9188C28.1 47.4021 29.932 46.9342 32.9 45.9866V41.1332C29.8 38.7065 29 34.0553 29.5 30.9208C30 27.7864 33.1779 22.6945 37.9 22.8319C42.6792 22.9709 45.5918 27.1369 46.2 31.932C46.6809 35.7232 45.6725 38.5348 42.9 41.1332C43.0653 43.2193 43.1 44.096 43.1 46.1888C55.5 47.8066 54 53.57 54 53.57C54 53.57 54 54.5433 50.6 54.58L66 54.5811C66 54.5811 73.2 47.0988 75.3 44.7732C76.2798 43.6882 78.3915 43.4836 80 44.0361L77.5 42.2454C72.596 41.5214 69.2 37.5497 69.2 32.5386C69.2 27.5275 72.5444 22.7715 77.5 22.8319C82.4049 22.8916 85.6 27.5788 85.6 32.5386C85.6 36.0702 84.586 39.6988 81.8 41.3499L83.6 44.1665C86.442 44.2436 85.6 51.2444 85.6 51.2444H92.2V71.7702C92.2 75.8147 88.7 80.9714 82.3 81.3758L84.1 98.0594H77.3H64.2H57.5H24.5H17.9V74.5002V68.029Z" fill="white"/>
<path d="M2 98.0594H17.9M102 98.0594H84.1M17.9 98.0594V74.5002M17.9 98.0594H24.5M17.9 68.029H14.5V61.0523H21.4M17.9 68.029V74.5002M17.9 68.029H64.2M68.6 61.0523V68.029H64.2M68.6 61.0523C68.6 61.0523 58.762 61.0523 50.6 61.0523M68.6 61.0523C68.6 61.0523 76.4528 53.2971 81.1 48.7166M64.2 68.029V74.5002M64.2 98.0594H57.5M64.2 98.0594V81.3758M64.2 98.0594H77.3M64.2 74.5002H29.1M64.2 74.5002V81.3758M64.2 74.5002H79.9C82.3 74.5002 85.6 71.2646 85.6 68.6357V51.2444M17.9 74.5002H23.3M24.5 98.0594L28 91.0826H54.5L57.5 98.0594M24.5 98.0594H57.5M21.4 61.0523C21.4 61.0523 21.4 56.6769 21.4 53.8733C21.4 50.6377 21.6992 49.6085 23.7 48.9188C28.1 47.4021 29.932 46.9342 32.9 45.9866M21.4 61.0523C21.4 61.0523 40.3292 61.0523 50.6 61.0523M32.9 45.9866C36.8 52.1544 41.8 48.1099 43.1 46.1888M32.9 45.9866C32.9 43.4587 32.9 43.661 32.9 41.1332M43.1 46.1888C43.1 44.096 43.0653 43.2193 42.9 41.1332M43.1 46.1888C55.5 47.8066 54 53.57 54 53.57C54 53.57 54 54.5433 50.6 54.58M42.9 41.1332C45.6725 38.5348 46.6809 35.7232 46.2 31.932C45.5918 27.1369 42.6792 22.9709 37.9 22.8319C33.1779 22.6945 30 27.7864 29.5 30.9208C29 34.0553 29.8 38.7065 32.9 41.1332M42.9 41.1332C40.4 42.8521 36.5 44.3688 32.9 41.1332M50.6 61.0523C46.2 59.7378 46.8 54.5811 50.4 54.5811C50.4679 54.5811 50.5346 54.5807 50.6 54.58M64.2 81.3758H75.7M75.7 81.3758L77.3 98.0594M75.7 81.3758H82.3M77.3 98.0594H84.1M84.1 98.0594L82.3 81.3758M82.3 81.3758C88.7 80.9714 92.2 75.8147 92.2 71.7702C92.2 67.7257 92.2 51.2444 92.2 51.2444H85.6M85.6 51.2444C85.6 51.2444 86.442 44.2436 83.6 44.1665M83.6 44.1665C80.1 44.0717 82.8 47.041 81.1 48.7166M83.6 44.1665L81.8 41.3499M81.1 48.7166C83.0204 46.2894 81.8391 44.6679 80 44.0361M50.6 54.58L66 54.5811C66 54.5811 73.2 47.0988 75.3 44.7732C76.2798 43.6882 78.3915 43.4836 80 44.0361M80 44.0361C80 44.0361 78.4763 42.9447 77.5 42.2454M77.5 42.2454C72.596 41.5214 69.2 37.5497 69.2 32.5386C69.2 27.5275 72.5444 22.7715 77.5 22.8319C82.4049 22.8916 85.6 27.5788 85.6 32.5386C85.6 36.0702 84.586 39.6988 81.8 41.3499M77.5 42.2454C79.2566 42.3619 80.6732 42.0176 81.8 41.3499" stroke="black" stroke-width="3" stroke-linecap="square"/>
</svg>
