<svg xmlns="http://www.w3.org/2000/svg" width="520" height="515" fill="none"><path stroke="#000" stroke-linecap="square" stroke-width="20" d="M244.5 41.5h2m31 0H330m29.5 0h4.5M273.008 113l49.587-38H394V10H214v65h59.008v38ZM10 504.5h79.5m420.5 0h-89.5m-331 0V388m0 116.5h33M89.5 356h-17v-34.5H107M89.5 356v32m0-32H321m22-34.5V356h-22m22-34.5h-90m90 0s39.264-38.35 62.5-61M321 356v32m0 116.5h-33.5m33.5 0V422m0 82.5h65.5M321 388H145.5m175.5 0v34m0-34h78.5c12 0 28.5-16 28.5-29v-86M89.5 388h27m6 116.5L140 470h132.5l15 34.5m-165 0h165M107 321.5V286c0-16 1.496-21.089 11.5-24.5 22-7.5 31.16-9.814 46-14.5M107 321.5h146M164.5 247c19.5 30.5 44.5 10.5 51 1m-51-1v-24m51 25c0-10.349-.173-14.684-1-25m1 25c62 8 54.5 36.5 54.5 36.5s0 4.813-17 4.995M214.5 223c13.862-12.849 18.904-26.752 16.5-45.5-3.041-23.712-17.604-44.313-41.5-45-23.61-.679-39.5 24.5-42 40s1.5 38.5 17 50.5m50 0c-12.5 8.5-32 16-50 0m88.5 98.5c-22-6.5-19-32-1-32 .34 0 .673-.002 1-.005M321 422h57.5m0 0 8 82.5m-8-82.5h33m-25 82.5h34m0 0-9-82.5m0 0c32-2 49.5-27.5 49.5-47.5V273h-33m0 0s4.21-34.619-10-35m0 0c-17.5-.469-4 14.214-12.5 22.5M418 238l-9-13.928m-3.5 36.428c9.602-12.002 3.695-20.021-5.5-23.145m-147 52.14 77 .005s36-37 46.5-48.5c4.899-5.365 15.457-6.377 23.5-3.645m0 0-12.5-8.855m0 0c-24.52-3.58-41.5-23.22-41.5-48s16.722-48.298 41.5-48c24.524.295 40.5 23.474 40.5 48 0 17.463-5.07 35.407-19 43.572m-21.5 4.428c8.783.576 15.866-1.126 21.5-4.428"/></svg>