<svg xmlns="http://www.w3.org/2000/svg" width="104" height="104" fill="none"><g stroke="#000" stroke-linecap="round" stroke-width="3"><path d="m18.41 66.866 1.262 8.27m-1.262-8.27s36.606 13.764 67.202 0m-67.202 0c-2.645-8.753 19.655-9.719 33.48-10.142M19.672 75.137c.601 1.992 7.153 26.923 30.475 26.863 23.323-.06 29.995-13.522 34.443-26.864m-64.918 0c13.825 4.468 46.885 6.4 64.918 0m0 0 1.022-8.27m0 0c1.262-3.863-1.022-5.735-15.569-8.753m20.738 1.51c0-.846-3.426-3.08-4.508-6.702-1.082-3.622-.384-6.459 0-7.787.384-1.328 1.589-5.557 4.508-6.882 2.246-1.02 4.073-1.035 6.312 0 2.886 1.335 4.027 5.554 4.388 6.882.36 1.328.961 4.226 0 7.787-.962 3.562-4.388 5.856-4.388 6.701V98.8c0 1.389-1.443 3.156-3.186 3.14-1.726-.017-3.123-1.932-3.126-3.14-.003-1.207 0-38.333 0-39.178Z"/><path d="M2 36.984v11.712m0 0h7.995m-7.995 0v5.614c0 2.837 4.809 4.105 4.809 5.372V98.68c0 .483 0 3.259 3.246 3.259 3.245 0 3.245-2.776 3.245-3.26V59.683c0-1.388 4.93-2.656 4.93-5.372v-5.614m-8.235 0V36.984m0 11.712h8.235m0 0V36.984M31.093 84.01c1.022 5.373 7.213 8.512 9.738 9.84m4.748 1.45v.18m23.383-62.903-8.536 11.41m0 0c-7.093-7.244-.721-15.032 2.945-17.446 3.667-2.415 15.328-4.588 15.328-3.864 0 .725-1.202 5.554-1.623 14.066-.42 8.512-13.705 10.142-16.65 7.244Zm-23.803-31.33 14.126 16.057m0 0c-3.306 1.871-10.64 1.268-14.126 0-3.486-1.268-8.148-6.323-10.279-12.436-1.825-5.235-.721-13.34-.721-14.186 0-.845 12.863 4.407 15.448 4.407 2.585 0 9.335.362 12.983 6.157 3.65 5.796 1.984 14.307-3.306 16.058Zm-3.667 32.478c1.827-.018 3.218 1.606 3.186 3.44-.032 1.8-1.393 3.338-3.186 3.32-1.777-.016-3.094-1.535-3.126-3.32-.032-1.818 1.315-3.423 3.126-3.44Zm9.798-8.03c0-.361 5.77-.542 6.612 0 .841.544 3.366 7.97 2.584 8.21-.781.242-8.956 2.053-9.196 1.691-.24-.362 0-9.538 0-9.9ZM40.59 42.056c0 .604 1.383 6.943 1.683 7.546.3.604 7.995-3.32 7.995-4.346 0-1.027-2.645-4.286-3.186-4.83-.541-.543-6.492 1.027-6.492 1.63Z"/></g></svg>