<svg width="140" height="140" viewBox="0 0 140 140" fill="none" xmlns="http://www.w3.org/2000/svg">
<g id="examination">
<circle id="eb" cx="70" cy="70" r="69.5" stroke="#D9D9D9"/>
<path id="e2" d="M71.1427 112.342C71.1427 112.342 57.9257 112.536 57.9256 112.342C57.9256 112.149 57.6084 106.435 61.2035 106.435M71.1427 112.342V106.435M71.1427 112.342H81.1877M71.1427 106.435H61.2035M71.1427 106.435H81.1877M71.1427 106.435V87.5519M61.2035 106.435V85.5183M118.301 73.8008C118.301 73.8008 118.301 112.149 118.301 112.342C118.301 112.536 81.1877 112.342 81.1877 112.342M118.301 73.8008H109.842V66.4411M118.301 73.8008L109.842 66.4411M109.842 66.4411H88.2721M81.1877 112.342V106.435M81.1877 60.9214V66.4411M81.1877 66.4411V78.3523M81.1877 66.4411H88.2721M81.1877 106.435V78.3523M87.2147 104.014C90.704 108.953 92.3958 104.014 94.1933 101.206M87.2147 91.6191C90.5982 96.6547 92.29 90.8444 94.1933 88.9076M61.2035 78.3523H81.1877M61.2035 78.3523V64.4075M61.2035 78.3523V85.5183M61.2035 60.9214V64.4075M54.2249 64.4075H61.2035M54.2249 64.4075C54.2249 64.4075 54.2249 77.9649 54.2249 80.289C54.2249 82.6132 61.2035 85.5183 61.2035 85.5183M54.2249 64.4075C54.2249 64.4075 54.2249 62.0834 54.2249 57.4352C54.2248 52.787 57.8199 51.0438 61.6264 50.1723C65.4329 49.3008 65.0359 48.8159 65.9616 50.1723M65.9616 50.1723C66.4903 50.947 66.2789 55.1111 71.2485 55.1111C76.2181 55.1111 76.6058 50.6554 76.641 50.1723M65.9616 50.1723C65.9616 50.1723 65.9616 48.4017 65.9616 47.2672M76.641 50.1723C76.7467 48.7197 78.2271 49.3976 79.4959 49.6881C80.7647 49.9786 88.2721 53.8522 88.2721 57.4352C88.2721 61.0182 88.2721 66.4411 88.2721 66.4411M76.641 50.1723V47.2672M65.9616 47.2672C70.1322 47.2672 76.641 47.2672 76.641 47.2672M65.9616 47.2672C64.1641 47.2672 60.7805 43.781 60.7805 42.7158M76.641 47.2672C78.4385 47.2672 81.4922 44.3584 81.6106 42.7158M81.6106 42.7158C88.2721 42.4253 88.2721 38.9391 88.2721 38.9391C88.2721 35.3561 83.3024 34.775 81.6106 34.775M81.6106 42.7158C81.6106 42.7158 81.4455 37.8761 81.6106 34.775M81.6106 34.775C82.8795 34.5814 84.3598 33.4193 84.3598 33.4193C84.3598 33.4193 84.3598 31.2889 84.3598 27.4153C84.3598 23.5418 78.4385 25.2849 78.1213 24.026C77.8041 22.7671 77.1697 19.5715 72.623 19.5714C68.0763 19.5714 69.6624 19.5714 65.2214 19.5714C60.7805 19.5714 57.7141 24.026 57.7141 26.6406C57.7141 29.2553 57.7141 31.3857 57.7141 33.9035C57.7141 36.4213 59.583 34.7888 60.7805 35.3561M81.6106 34.775C81.0819 32.7414 76.4295 28.19 75.9008 28.9647C75.3722 29.7394 72.9402 33.2256 69.028 33.4193C65.1157 33.613 65.2214 33.4193 62.6838 33.4193C60.1461 33.4193 61.5238 34.5997 60.7805 35.3561M60.7805 35.3561C56.1281 35.3561 54.6478 35.3561 54.6478 38.9391C54.6478 41.9411 56.4453 42.7158 60.7805 42.7158M60.7805 35.3561C60.7805 38.1644 60.7805 40.1011 60.7805 42.7158" stroke="black" stroke-width="3" stroke-linecap="round"/>
<path id="e1" d="M99.0255 106.435H112.243M99.0255 100.238H112.243M99.0255 93.8464H112.243M99.0255 87.8425H107.273M99.6599 79.0302V71.6705M95.7477 75.2535H103.784M24.5869 22.7672H43.0908M24.5869 29.0616H48.4834L64.6611 37.3897M24.9041 75.2535H40.7646M24.9041 81.6448H46.7916L73.3315 62.374M24.9041 100.238H40.7646M24.9041 106.435H45.417L64.5554 97.72" stroke="black" stroke-width="3" stroke-linecap="square"/>
</g>
</svg>
