<svg width="140" height="140" viewBox="0 0 140 140" fill="none" xmlns="http://www.w3.org/2000/svg">
<g id="examination">
<circle id="eb" cx="70" cy="70" r="68.5" stroke="#D9D9D9" stroke-width="3"/>
<path id="e2" d="M70.1427 114.342C70.1427 114.342 56.9257 114.536 56.9256 114.342C56.9256 114.149 56.6084 108.435 60.2035 108.435M70.1427 114.342V108.435M70.1427 114.342H80.1877M70.1427 108.435H60.2035M70.1427 108.435H80.1877M70.1427 108.435V89.5519M60.2035 108.435V87.5183M117.301 75.8008C117.301 75.8008 117.301 114.149 117.301 114.342C117.301 114.536 80.1877 114.342 80.1877 114.342M117.301 75.8008H108.842V68.4411M117.301 75.8008L108.842 68.4411M108.842 68.4411H87.2721M80.1877 114.342V108.435M80.1877 62.9214V68.4411M80.1877 68.4411V80.3523M80.1877 68.4411H87.2721M80.1877 108.435V80.3523M86.2147 106.014C89.704 110.953 91.3958 106.014 93.1933 103.206M86.2147 93.6191C89.5982 98.6547 91.29 92.8444 93.1933 90.9076M60.2035 80.3523H80.1877M60.2035 80.3523V66.4075M60.2035 80.3523V87.5183M60.2035 62.9214V66.4075M53.2249 66.4075H60.2035M53.2249 66.4075C53.2249 66.4075 53.2249 79.9649 53.2249 82.289C53.2249 84.6132 60.2035 87.5183 60.2035 87.5183M53.2249 66.4075C53.2249 66.4075 53.2249 64.0834 53.2249 59.4352C53.2248 54.787 56.8199 53.0438 60.6264 52.1723C64.4329 51.3008 64.0359 50.8159 64.9616 52.1723M64.9616 52.1723C65.4903 52.947 65.2789 57.1111 70.2485 57.1111C75.2181 57.1111 75.6058 52.6554 75.641 52.1723M64.9616 52.1723C64.9616 52.1723 64.9616 50.4017 64.9616 49.2672M75.641 52.1723C75.7467 50.7197 77.2271 51.3976 78.4959 51.6881C79.7647 51.9786 87.2721 55.8522 87.2721 59.4352C87.2721 63.0182 87.2721 68.4411 87.2721 68.4411M75.641 52.1723V49.2672M64.9616 49.2672C69.1322 49.2672 75.641 49.2672 75.641 49.2672M64.9616 49.2672C63.1641 49.2672 59.7805 45.781 59.7805 44.7158M75.641 49.2672C77.4385 49.2672 80.4922 46.3584 80.6106 44.7158M80.6106 44.7158C87.2721 44.4253 87.2721 40.9391 87.2721 40.9391C87.2721 37.3561 82.3024 36.775 80.6106 36.775M80.6106 44.7158C80.6106 44.7158 80.4455 39.8761 80.6106 36.775M80.6106 36.775C81.8795 36.5814 83.3598 35.4193 83.3598 35.4193C83.3598 35.4193 83.3598 33.2889 83.3598 29.4153C83.3598 25.5418 77.4385 27.2849 77.1213 26.026C76.8041 24.7671 76.1697 21.5715 71.623 21.5714C67.0763 21.5714 68.6624 21.5714 64.2214 21.5714C59.7805 21.5714 56.7141 26.026 56.7141 28.6406C56.7141 31.2553 56.7141 33.3857 56.7141 35.9035C56.7141 38.4213 58.583 36.7888 59.7805 37.3561M80.6106 36.775C80.0819 34.7414 75.4295 30.19 74.9008 30.9647C74.3722 31.7394 71.9402 35.2256 68.028 35.4193C64.1157 35.613 64.2214 35.4193 61.6838 35.4193C59.1461 35.4193 60.5238 36.5997 59.7805 37.3561M59.7805 37.3561C55.1281 37.3561 53.6478 37.3561 53.6478 40.9391C53.6478 43.9411 55.4453 44.7158 59.7805 44.7158M59.7805 37.3561C59.7805 40.1644 59.7805 42.1011 59.7805 44.7158" stroke="black" stroke-width="3" stroke-linecap="round"/>
<path id="e1" d="M98.0255 108.435H111.243M98.0255 102.238H111.243M98.0255 95.8464H111.243M98.0255 89.8425H106.273M98.6599 81.0302V73.6705M94.7477 77.2535H102.784M23.5869 24.7672H42.0908M23.5869 31.0616H47.4834L63.6611 39.3897M23.9041 77.2535H39.7646M23.9041 83.6448H45.7916L72.3315 64.374M23.9041 102.238H39.7646M23.9041 108.435H44.417L63.5554 99.72" stroke="black" stroke-width="3" stroke-linecap="square"/>
</g>
</svg>
