<svg width="500" height="500" viewBox="0 0 500 500" fill="none" xmlns="http://www.w3.org/2000/svg">
<g id="portfolioCarousel">
<g id="healthy-food" filter="url(#filter0_d_19_10)">
<path id="hb" opacity="0.5" d="M495.5 259.523C495.5 297.098 465.496 327.545 428.5 327.545C391.504 327.545 361.5 297.098 361.5 259.523C361.5 221.948 391.504 191.5 428.5 191.5C465.496 191.5 495.5 221.948 495.5 259.523Z" stroke="#D9D9D9"/>
<path id="h3" d="M394.41 267.866C394.41 267.866 395.179 272.907 395.672 276.136M394.41 267.866C394.41 267.866 431.016 281.63 461.612 267.866M394.41 267.866C391.765 259.113 414.065 258.147 427.89 257.724M395.672 276.136C396.273 278.129 402.825 303.06 426.147 303C449.47 302.94 456.142 289.478 460.59 276.136M395.672 276.136C409.497 280.604 442.557 282.535 460.59 276.136M460.59 276.136C460.989 272.907 461.213 271.096 461.612 267.866M461.612 267.866C462.874 264.003 460.59 262.131 446.043 259.113M466.781 260.622C466.781 259.777 463.355 257.543 462.273 253.921C461.191 250.299 461.889 247.462 462.273 246.134C462.657 244.806 463.862 240.577 466.781 239.252C469.027 238.233 470.854 238.217 473.093 239.252C475.979 240.587 477.12 244.806 477.481 246.134C477.841 247.462 478.442 250.36 477.481 253.921C476.519 257.483 473.093 259.777 473.093 260.622C473.093 261.467 473.093 298.412 473.093 299.8C473.093 301.189 471.65 302.956 469.907 302.94C468.181 302.923 466.784 301.008 466.781 299.8C466.778 298.593 466.781 261.467 466.781 260.622Z" stroke="black" stroke-width="3" stroke-linecap="round"/>
<path id="h2" d="M378 237.984V249.696M378 249.696H385.995M378 249.696C378 249.696 378 253.117 378 255.31C378 258.147 382.809 259.415 382.809 260.682C382.809 269.556 382.809 287.667 382.809 299.68C382.809 300.163 382.809 302.939 386.055 302.939C389.301 302.939 389.301 300.163 389.301 299.68C389.301 285.554 389.301 270.945 389.301 260.682C389.301 259.294 394.229 258.026 394.229 255.31C394.229 254.766 394.229 249.696 394.229 249.696M385.995 249.696V237.984M385.995 249.696H394.229M394.229 249.696V237.984" stroke="black" stroke-width="3" stroke-linecap="round"/>
<path id="h1" d="M407.093 285.01C408.115 290.383 414.306 293.522 416.83 294.85M421.579 296.299V296.48M444.962 233.578C444.962 233.578 439.759 240.531 436.426 244.987M436.426 244.987C429.333 237.743 435.705 229.956 439.371 227.541C443.038 225.126 454.699 222.953 454.699 223.677C454.699 224.402 453.497 229.231 453.076 237.743C452.656 246.255 439.371 247.885 436.426 244.987ZM412.623 213.656C412.623 213.656 421.232 223.443 426.748 229.714M426.748 229.714C423.442 231.585 416.109 230.982 412.623 229.714C409.137 228.446 404.474 223.391 402.344 217.278C400.519 212.042 401.623 203.937 401.623 203.092C401.623 202.247 414.486 207.499 417.071 207.499C419.656 207.499 426.406 207.861 430.054 213.656C433.703 219.452 432.038 227.963 426.748 229.714ZM423.082 262.192C424.909 262.174 426.3 263.798 426.268 265.633C426.236 267.433 424.875 268.97 423.082 268.953C421.305 268.936 419.988 267.417 419.956 265.633C419.924 263.814 421.271 262.209 423.082 262.192ZM432.88 254.163C432.88 253.801 438.65 253.62 439.492 254.163C440.333 254.706 442.858 262.131 442.076 262.373C441.295 262.614 433.12 264.425 432.88 264.063C432.639 263.701 432.88 254.525 432.88 254.163ZM416.59 243.055C416.59 243.659 417.973 249.997 418.273 250.601C418.574 251.205 426.268 247.281 426.268 246.255C426.268 245.228 423.623 241.969 423.082 241.425C422.541 240.882 416.59 242.452 416.59 243.055Z" stroke="black" stroke-width="3" stroke-linecap="round"/>
</g>
<g id="consultation" filter="url(#filter1_d_19_10)">
<path id="cb" d="M235.423 71C235.423 109.387 204.544 140.5 166.462 140.5C128.379 140.5 97.5 109.387 97.5 71C97.5 32.6126 128.379 1.5 166.462 1.5C204.544 1.5 235.423 32.6126 235.423 71Z" stroke="#D9D9D9"/>
<path id="c2" d="M160.9 19.3701H161.3M167.5 19.3701H178M183.9 19.3701H184.8M166.602 33.8291L176.519 26.1446H190.8V13H154.8V26.1446H166.602V33.8291Z" stroke="black" stroke-width="3" stroke-linecap="square"/>
<path id="c1" d="M114 109.059H129.9M214 109.059H196.1M129.9 109.059V85.5002M129.9 109.059H136.5M129.9 79.029H126.5V72.0523H133.4M129.9 79.029V85.5002M129.9 79.029H176.2M180.6 72.0523V79.029H176.2M180.6 72.0523C180.6 72.0523 170.762 72.0523 162.6 72.0523M180.6 72.0523C180.6 72.0523 188.453 64.2971 193.1 59.7166M176.2 79.029V85.5002M176.2 109.059H169.5M176.2 109.059V92.3758M176.2 109.059H189.3M176.2 85.5002H141.1M176.2 85.5002V92.3758M176.2 85.5002H191.9C194.3 85.5002 197.6 82.2646 197.6 79.6357V62.2444M129.9 85.5002H135.3M136.5 109.059L140 102.083H166.5L169.5 109.059M136.5 109.059H169.5M133.4 72.0523C133.4 72.0523 133.4 67.6769 133.4 64.8733C133.4 61.6377 133.699 60.6085 135.7 59.9188C140.1 58.4021 141.932 57.9342 144.9 56.9866M133.4 72.0523C133.4 72.0523 152.329 72.0523 162.6 72.0523M144.9 56.9866C148.8 63.1544 153.8 59.1099 155.1 57.1888M144.9 56.9866C144.9 54.4587 144.9 54.661 144.9 52.1332M155.1 57.1888C155.1 55.096 155.065 54.2193 154.9 52.1332M155.1 57.1888C167.5 58.8066 166 64.57 166 64.57C166 64.57 166 65.5433 162.6 65.58M154.9 52.1332C157.672 49.5348 158.681 46.7232 158.2 42.932C157.592 38.1369 154.679 33.9709 149.9 33.8319C145.178 33.6945 142 38.7864 141.5 41.9208C141 45.0553 141.8 49.7065 144.9 52.1332M154.9 52.1332C152.4 53.8521 148.5 55.3688 144.9 52.1332M162.6 72.0523C158.2 70.7378 158.8 65.5811 162.4 65.5811C162.468 65.5811 162.535 65.5807 162.6 65.58M176.2 92.3758H187.7M187.7 92.3758L189.3 109.059M187.7 92.3758H194.3M189.3 109.059H196.1M196.1 109.059L194.3 92.3758M194.3 92.3758C200.7 91.9714 204.2 86.8147 204.2 82.7702C204.2 78.7257 204.2 62.2444 204.2 62.2444H197.6M197.6 62.2444C197.6 62.2444 198.442 55.2436 195.6 55.1665M195.6 55.1665C192.1 55.0717 194.8 58.041 193.1 59.7166M195.6 55.1665L193.8 52.3499M193.1 59.7166C195.02 57.2894 193.839 55.6679 192 55.0361M162.6 65.58L178 65.5811C178 65.5811 185.2 58.0988 187.3 55.7732C188.28 54.6882 190.391 54.4836 192 55.0361M192 55.0361C192 55.0361 190.476 53.9447 189.5 53.2454M189.5 53.2454C184.596 52.5214 181.2 48.5497 181.2 43.5386C181.2 38.5275 184.544 33.7715 189.5 33.8319C194.405 33.8916 197.6 38.5788 197.6 43.5386C197.6 47.0702 196.586 50.6988 193.8 52.3499M189.5 53.2454C191.257 53.3619 192.673 53.0176 193.8 52.3499" stroke="black" stroke-width="3" stroke-linecap="square"/>
</g>
<g id="examination" filter="url(#filter2_d_19_10)">
<circle id="eb" cx="141" cy="411" r="68.5" stroke="#D9D9D9" stroke-width="3"/>
<path id="e2" d="M141.143 455.342C141.143 455.342 127.926 455.536 127.926 455.342C127.926 455.149 127.608 449.435 131.203 449.435M141.143 455.342V449.435M141.143 455.342H151.188M141.143 449.435H131.203M141.143 449.435H151.188M141.143 449.435V430.552M131.203 449.435V428.518M188.301 416.801C188.301 416.801 188.301 455.149 188.301 455.342C188.301 455.536 151.188 455.342 151.188 455.342M188.301 416.801H179.842V409.441M188.301 416.801L179.842 409.441M179.842 409.441H158.272M151.188 455.342V449.435M151.188 403.921V409.441M151.188 409.441V421.352M151.188 409.441H158.272M151.188 449.435V421.352M157.215 447.014C160.704 451.953 162.396 447.014 164.193 444.206M157.215 434.619C160.598 439.655 162.29 433.844 164.193 431.908M131.203 421.352H151.188M131.203 421.352V407.408M131.203 421.352V428.518M131.203 403.921V407.408M124.225 407.408H131.203M124.225 407.408C124.225 407.408 124.225 420.965 124.225 423.289C124.225 425.613 131.203 428.518 131.203 428.518M124.225 407.408C124.225 407.408 124.225 405.083 124.225 400.435C124.225 395.787 127.82 394.044 131.626 393.172C135.433 392.301 135.036 391.816 135.962 393.172M135.962 393.172C136.49 393.947 136.279 398.111 141.248 398.111C146.218 398.111 146.606 393.655 146.641 393.172M135.962 393.172C135.962 393.172 135.962 391.402 135.962 390.267M146.641 393.172C146.747 391.72 148.227 392.398 149.496 392.688C150.765 392.979 158.272 396.852 158.272 400.435C158.272 404.018 158.272 409.441 158.272 409.441M146.641 393.172V390.267M135.962 390.267C140.132 390.267 146.641 390.267 146.641 390.267M135.962 390.267C134.164 390.267 130.781 386.781 130.781 385.716M146.641 390.267C148.439 390.267 151.492 387.358 151.611 385.716M151.611 385.716C158.272 385.425 158.272 381.939 158.272 381.939C158.272 378.356 153.302 377.775 151.611 377.775M151.611 385.716C151.611 385.716 151.445 380.876 151.611 377.775M151.611 377.775C152.879 377.581 154.36 376.419 154.36 376.419C154.36 376.419 154.36 374.289 154.36 370.415C154.36 366.542 148.439 368.285 148.121 367.026C147.804 365.767 147.17 362.571 142.623 362.571C138.076 362.571 139.662 362.571 135.221 362.571C130.781 362.571 127.714 367.026 127.714 369.641C127.714 372.255 127.714 374.386 127.714 376.903C127.714 379.421 129.583 377.789 130.781 378.356M151.611 377.775C151.082 375.741 146.43 371.19 145.901 371.965C145.372 372.739 142.94 376.226 139.028 376.419C135.116 376.613 135.221 376.419 132.684 376.419C130.146 376.419 131.524 377.6 130.781 378.356M130.781 378.356C126.128 378.356 124.648 378.356 124.648 381.939C124.648 384.941 126.445 385.716 130.781 385.716M130.781 378.356C130.781 381.164 130.781 383.101 130.781 385.716" stroke="black" stroke-width="3" stroke-linecap="round"/>
<path id="e1" d="M169.026 449.435H182.243M169.026 443.238H182.243M169.026 436.846H182.243M169.026 430.842H177.273M169.66 422.03V414.67M165.748 418.253H173.784M94.5869 365.767H113.091M94.5869 372.062H118.483L134.661 380.39M94.9041 418.253H110.765M94.9041 424.645H116.792L143.332 405.374M94.9041 443.238H110.765M94.9041 449.435H115.417L134.555 440.72" stroke="black" stroke-width="3" stroke-linecap="square"/>
</g>
<path id="circle-left" d="M101.5 100.5C81 115.5 -12.0002 231 80.9999 370.5" stroke="black" stroke-width="3" stroke-linecap="round"/>
<path id="circle-right-bottom" d="M203.5 449C339.5 475.5 419.5 376 437 328.5" stroke="black" stroke-width="3" stroke-linecap="round"/>
<path id="circle-right-up" d="M446 192C427.5 121 355 33.5 231 41" stroke="black" stroke-width="3" stroke-linecap="round"/>
</g>
<defs>
<filter id="filter0_d_19_10" x="357" y="191" width="143" height="145.045" filterUnits="userSpaceOnUse" color-interpolation-filters="sRGB">
<feFlood flood-opacity="0" result="BackgroundImageFix"/>
<feColorMatrix in="SourceAlpha" type="matrix" values="0 0 0 0 0 0 0 0 0 0 0 0 0 0 0 0 0 0 127 0" result="hardAlpha"/>
<feOffset dy="4"/>
<feGaussianBlur stdDeviation="2"/>
<feComposite in2="hardAlpha" operator="out"/>
<feColorMatrix type="matrix" values="0 0 0 0 0 0 0 0 0 0 0 0 0 0 0 0 0 0 0.25 0"/>
<feBlend mode="normal" in2="BackgroundImageFix" result="effect1_dropShadow_19_10"/>
<feBlend mode="normal" in="SourceGraphic" in2="effect1_dropShadow_19_10" result="shape"/>
</filter>
<filter id="filter1_d_19_10" x="93" y="1" width="146.923" height="148" filterUnits="userSpaceOnUse" color-interpolation-filters="sRGB">
<feFlood flood-opacity="0" result="BackgroundImageFix"/>
<feColorMatrix in="SourceAlpha" type="matrix" values="0 0 0 0 0 0 0 0 0 0 0 0 0 0 0 0 0 0 127 0" result="hardAlpha"/>
<feOffset dy="4"/>
<feGaussianBlur stdDeviation="2"/>
<feComposite in2="hardAlpha" operator="out"/>
<feColorMatrix type="matrix" values="0 0 0 0 0 0 0 0 0 0 0 0 0 0 0 0 0 0 0.25 0"/>
<feBlend mode="normal" in2="BackgroundImageFix" result="effect1_dropShadow_19_10"/>
<feBlend mode="normal" in="SourceGraphic" in2="effect1_dropShadow_19_10" result="shape"/>
</filter>
<filter id="filter2_d_19_10" x="67" y="341" width="148" height="148" filterUnits="userSpaceOnUse" color-interpolation-filters="sRGB">
<feFlood flood-opacity="0" result="BackgroundImageFix"/>
<feColorMatrix in="SourceAlpha" type="matrix" values="0 0 0 0 0 0 0 0 0 0 0 0 0 0 0 0 0 0 127 0" result="hardAlpha"/>
<feOffset dy="4"/>
<feGaussianBlur stdDeviation="2"/>
<feComposite in2="hardAlpha" operator="out"/>
<feColorMatrix type="matrix" values="0 0 0 0 0 0 0 0 0 0 0 0 0 0 0 0 0 0 0.25 0"/>
<feBlend mode="normal" in2="BackgroundImageFix" result="effect1_dropShadow_19_10"/>
<feBlend mode="normal" in="SourceGraphic" in2="effect1_dropShadow_19_10" result="shape"/>
</filter>
</defs>
</svg>
