<svg width="317" height="130" viewBox="0 0 317 130" fill="none" xmlns="http://www.w3.org/2000/svg">
<rect width="317" height="130" fill="#F5F5F5"/>
<g id="portfolioMobile">
<rect width="317" height="130" fill="white"/>
<g id="consultation">
<circle id="cb" cx="50" cy="65" r="49.5" stroke="#D9D9D9"/>
<path id="c2" d="M45.9964 28.1215H46.2843M50.7472 28.1215H58.3054M62.5523 28.1215H63.2002M50.1006 38.4494L57.2393 32.9604H67.5191V23.5714H41.6055V32.9604H50.1006V38.4494Z" stroke="black" stroke-width="3" stroke-linecap="square"/>
<path id="c1" d="M12.2368 92.1852H23.682M84.2191 92.1852H71.3343M23.682 92.1852V75.3573M23.682 92.1852H28.4328M23.682 70.735H21.2346V65.7516H26.2014M23.682 70.735V75.3573M23.682 70.735H57.0098M60.177 65.7516V70.735H57.0098M60.177 65.7516C60.177 65.7516 53.0954 65.7516 47.2202 65.7516M60.177 65.7516C60.177 65.7516 65.8296 60.2121 69.1748 56.9404M57.0098 70.735V75.3573M57.0098 92.1852H52.187M57.0098 92.1852V80.2684M57.0098 92.1852H66.4395M57.0098 75.3573H31.744M57.0098 75.3573V80.2684M57.0098 75.3573H68.311C70.0386 75.3573 72.414 73.0461 72.414 71.1683V58.746M23.682 75.3573H27.569M28.4328 92.1852L30.9522 87.2018H50.0275L52.187 92.1852M28.4328 92.1852H52.187M26.2014 65.7516C26.2014 65.7516 26.2014 62.6263 26.2014 60.6238C26.2014 58.3126 26.4167 57.5775 27.857 57.0848C31.0242 56.0015 32.3429 55.6673 34.4793 54.9904M26.2014 65.7516C26.2014 65.7516 39.8271 65.7516 47.2202 65.7516M34.4793 54.9904C37.2866 59.396 40.8858 56.507 41.8215 55.1348M34.4793 54.9904C34.4793 53.1848 34.4793 53.3292 34.4793 51.5237M41.8215 55.1348C41.8215 53.6399 41.7966 53.0137 41.6776 51.5237M41.8215 55.1348C50.7473 56.2904 49.6676 60.4071 49.6676 60.4071C49.6676 60.4071 49.6676 61.1023 47.2202 61.1286M41.6776 51.5237C43.6732 49.6677 44.3991 47.6594 44.053 44.9514C43.6152 41.5263 41.5186 38.5506 38.0785 38.4513C34.6794 38.3532 32.3919 41.9902 32.0319 44.2291C31.672 46.468 32.2479 49.7903 34.4793 51.5237M41.6776 51.5237C39.878 52.7514 37.0707 53.8348 34.4793 51.5237M47.2202 65.7516C44.053 64.8127 44.4849 61.1293 47.0762 61.1293C47.1251 61.1293 47.1731 61.1291 47.2202 61.1286M57.0098 80.2684H65.2878M65.2878 80.2684L66.4395 92.1852M65.2878 80.2684H70.0386M66.4395 92.1852H71.3343M71.3343 92.1852L70.0386 80.2684M70.0386 80.2684C74.6455 79.9795 77.1648 76.2961 77.1648 73.4072C77.1648 70.5183 77.1648 58.746 77.1648 58.746H72.414M72.414 58.746C72.414 58.746 73.0201 53.7454 70.9744 53.6903M70.9744 53.6903C68.455 53.6226 70.3985 55.7435 69.1748 56.9404M70.9744 53.6903L69.6787 51.6784M69.1748 56.9404C70.5571 55.2067 69.7068 54.0484 68.383 53.5972M47.2202 61.1286L58.3055 61.1293C58.3055 61.1293 63.4882 55.7848 64.9998 54.1237C65.7051 53.3487 67.2251 53.2025 68.383 53.5972M68.383 53.5972C68.383 53.5972 67.2862 52.8176 66.5834 52.3181M66.5834 52.3181C63.0535 51.8009 60.6089 48.964 60.6089 45.3847C60.6089 41.8053 63.0163 38.4082 66.5834 38.4513C70.1141 38.494 72.414 41.842 72.414 45.3847C72.414 47.9072 71.6841 50.4991 69.6787 51.6784M66.5834 52.3181C67.8479 52.4013 68.8676 52.1554 69.6787 51.6784" stroke="black" stroke-width="3" stroke-linecap="square"/>
</g>
<g id="healthy-food">
<circle id="hb" opacity="0.5" cx="156" cy="64" r="49.5" stroke="#D9D9D9"/>
<path id="h3" d="M130.748 70.0881C130.748 70.0881 131.318 73.7661 131.683 76.1228M130.748 70.0881C130.748 70.0881 157.864 80.1313 180.527 70.0881M130.748 70.0881C128.789 63.701 145.308 62.9962 155.549 62.6878M131.683 76.1228C132.128 77.5764 136.982 95.7687 154.257 95.7247C171.533 95.6806 176.476 85.8577 179.77 76.1228M131.683 76.1228C141.924 79.3824 166.413 80.792 179.77 76.1228M179.77 76.1228C180.066 73.7661 180.232 72.4448 180.527 70.0881M180.527 70.0881C181.462 67.269 179.77 65.9034 168.995 63.701M184.357 64.8022C184.357 64.1855 181.819 62.5557 181.017 59.9128C180.216 57.2698 180.733 55.1995 181.017 54.2304C181.302 53.2613 182.194 50.1753 184.357 49.2088C186.02 48.4652 187.373 48.4532 189.032 49.2088C191.17 50.183 192.015 53.2613 192.282 54.2304C192.549 55.1995 192.994 57.3139 192.282 59.9128C191.57 62.5116 189.032 64.1855 189.032 64.8022C189.032 65.4189 189.032 92.3769 189.032 93.3901C189.032 94.4032 187.963 95.6928 186.672 95.6806C185.393 95.6686 184.358 94.271 184.357 93.3901C184.355 92.5091 184.357 65.4189 184.357 64.8022Z" stroke="black" stroke-width="3" stroke-linecap="round"/>
<path id="h2" d="M118.593 48.2838V56.8293M118.593 56.8293H124.515M118.593 56.8293C118.593 56.8293 118.593 59.326 118.593 60.9258C118.593 62.9961 122.155 63.9212 122.155 64.8462C122.155 71.3214 122.155 84.5361 122.155 93.3019C122.155 93.6543 122.155 95.6806 124.559 95.6806C126.964 95.6806 126.964 93.6543 126.964 93.3019C126.964 82.9944 126.964 72.3346 126.964 64.8462C126.964 63.8331 130.615 62.908 130.615 60.9258C130.615 60.5294 130.615 56.8293 130.615 56.8293M124.515 56.8293V48.2838M124.515 56.8293H130.615M130.615 56.8293V48.2838" stroke="black" stroke-width="3" stroke-linecap="round"/>
<path id="h1" d="M140.143 82.598C140.9 86.5184 145.486 88.809 147.356 89.778M150.873 90.8352V90.9674M168.194 45.0682C168.194 45.0682 164.34 50.1423 161.871 53.3935M161.871 53.3935C156.617 48.1076 161.337 42.4253 164.053 40.6633C166.769 38.9013 175.407 37.3156 175.407 37.8441C175.407 38.3727 174.516 41.8967 174.205 48.1076C173.893 54.3185 164.053 55.5078 161.871 53.3935ZM144.239 30.532C144.239 30.532 150.616 37.6733 154.703 42.249M154.703 42.249C152.254 43.6146 146.822 43.1741 144.239 42.249C141.657 41.324 138.203 37.6353 136.625 33.1749C135.274 29.3544 136.091 23.4401 136.091 22.8234C136.091 22.2067 145.62 26.039 147.534 26.039C149.449 26.039 154.449 26.3033 157.152 30.532C159.855 34.7607 158.621 40.9716 154.703 42.249ZM151.987 65.9475C153.34 65.9348 154.371 67.1196 154.346 68.4583C154.323 69.772 153.315 70.8935 151.987 70.881C150.671 70.8686 149.695 69.7601 149.671 68.4583C149.647 67.1312 150.645 65.9601 151.987 65.9475ZM159.244 60.089C159.244 59.8247 163.519 59.6925 164.142 60.089C164.765 60.4854 166.635 65.9034 166.057 66.0796C165.478 66.2558 159.422 67.5773 159.244 67.313C159.066 67.0487 159.244 60.3533 159.244 60.089ZM147.178 51.9839C147.178 52.4244 148.202 57.0496 148.425 57.4901C148.647 57.9305 154.346 55.0674 154.346 54.3185C154.346 53.5697 152.387 51.191 151.987 50.7946C151.586 50.3981 147.178 51.5434 147.178 51.9839Z" stroke="black" stroke-width="3" stroke-linecap="round"/>
</g>
<g id="examination">
<circle id="eb" cx="262" cy="64" r="49.5" stroke="#D9D9D9"/>
<path id="e2" d="M262.102 95.6732C262.102 95.6732 252.661 95.8115 252.661 95.6732C252.661 95.5348 252.434 91.4538 255.002 91.4538M262.102 95.6732V91.4538M262.102 95.6732H269.277M262.102 91.4538H255.002M262.102 91.4538H269.277M262.102 91.4538V77.9656M255.002 91.4538V76.5131M295.786 68.1435C295.786 68.1435 295.786 95.5348 295.786 95.6732C295.786 95.8115 269.277 95.6732 269.277 95.6732M295.786 68.1435H289.744V62.8865M295.786 68.1435L289.744 62.8865M289.744 62.8865H274.337M269.277 95.6732V91.4538M269.277 58.9438V62.8865M269.277 62.8865V71.3945M269.277 62.8865H274.337M269.277 91.4538V71.3945M273.582 89.7246C276.074 93.2522 277.283 89.7246 278.566 87.7186M273.582 80.8708C275.999 84.4676 277.207 80.3174 278.566 78.934M255.002 71.3945H269.277M255.002 71.3945V61.4339M255.002 71.3945V76.5131M255.002 58.9438V61.4339M250.018 61.4339H255.002M250.018 61.4339C250.018 61.4339 250.018 71.1178 250.018 72.7779C250.018 74.438 255.002 76.5131 255.002 76.5131M250.018 61.4339C250.018 61.4339 250.018 59.7739 250.018 56.4537C250.018 53.1335 252.585 51.8885 255.304 51.2659C258.023 50.6434 257.74 50.2971 258.401 51.2659M258.401 51.2659C258.779 51.8193 258.628 54.7936 262.177 54.7936C265.727 54.7936 266.004 51.611 266.029 51.2659M258.401 51.2659C258.401 51.2659 258.401 50.0012 258.401 49.1908M266.029 51.2659C266.105 50.2284 267.162 50.7126 268.068 50.9201C268.975 51.1276 274.337 53.8944 274.337 56.4537C274.337 59.013 274.337 62.8865 274.337 62.8865M266.029 51.2659V49.1908M258.401 49.1908C261.38 49.1908 266.029 49.1908 266.029 49.1908M258.401 49.1908C257.117 49.1908 254.7 46.7007 254.7 45.9398M266.029 49.1908C267.313 49.1908 269.494 47.1132 269.579 45.9398M269.579 45.9398C274.337 45.7323 274.337 43.2422 274.337 43.2422C274.337 40.6829 270.787 40.2679 269.579 40.2679M269.579 45.9398C269.579 45.9398 269.461 42.4829 269.579 40.2679M269.579 40.2679C270.485 40.1295 271.543 39.2995 271.543 39.2995C271.543 39.2995 271.543 37.7777 271.543 35.0109C271.543 32.2441 267.313 33.4892 267.086 32.59C266.86 31.6908 266.407 29.4082 263.159 29.4082C259.911 29.4081 261.044 29.4082 257.872 29.4082C254.7 29.4082 252.51 32.59 252.51 34.4576C252.51 36.3252 252.51 37.8469 252.51 39.6453C252.51 41.4438 253.845 40.2777 254.7 40.6829M269.579 40.2679C269.201 38.8153 265.878 35.5643 265.5 36.1177C265.123 36.671 263.386 39.1612 260.591 39.2995C257.797 39.4378 257.872 39.2995 256.06 39.2995C254.247 39.2995 255.231 40.1426 254.7 40.6829M254.7 40.6829C251.377 40.6829 250.32 40.6829 250.32 43.2422C250.32 45.3865 251.604 45.9398 254.7 45.9398M254.7 40.6829C254.7 42.6888 254.7 44.0722 254.7 45.9398" stroke="black" stroke-width="3" stroke-linecap="round"/>
<path id="e1" d="M282.018 91.4539H291.459M282.018 87.027H291.459M282.018 82.4617H291.459M282.018 78.1732H287.909M282.471 71.8787V66.6218M279.677 69.1811H285.417M228.848 31.6908H242.065M228.848 36.1869H245.917L257.472 42.1355M229.074 69.1811H240.403M229.074 73.7463H244.708L263.665 59.9814M229.074 87.027H240.403M229.074 91.4539H243.726L257.397 85.2285" stroke="black" stroke-width="3" stroke-linecap="square"/>
</g>
</g>
</svg>
