<svg id="visual" viewBox="0 0 960 540" width="960" height="540" xmlns="http://www.w3.org/2000/svg" xmlns:xlink="http://www.w3.org/1999/xlink" version="1.1"><rect x="0" y="0" width="960" height="540" fill="#fff"></rect><path d="M0 79L32 82C64 85 128 91 192 97.8C256 104.7 320 112.3 384 103.3C448 94.3 512 68.7 576 59.5C640 50.3 704 57.7 768 60.5C832 63.3 896 61.7 928 60.8L960 60L960 0L928 0C896 0 832 0 768 0C704 0 640 0 576 0C512 0 448 0 384 0C320 0 256 0 192 0C128 0 64 0 32 0L0 0Z" fill="#ff6666" stroke-linecap="round" stroke-linejoin="miter"></path></svg>