<svg width="55" height="30" viewBox="0 0 55 30" fill="none" xmlns="http://www.w3.org/2000/svg">
<path d="M14.3867 29H8.80078V20.2305C7.5638 19.918 6.42448 19.4167 5.38281 18.7266C4.35417 18.0365 3.46875 17.2161 2.72656 16.2656C1.98438 15.3021 1.40495 14.2409 0.988281 13.082C0.584635 11.9102 0.382812 10.6797 0.382812 9.39062V0.992188H5.98828V9.39062C5.98828 10.1589 6.13151 10.888 6.41797 11.5781C6.71745 12.2552 7.12109 12.8477 7.62891 13.3555C8.13672 13.8633 8.72917 14.2669 9.40625 14.5664C10.0964 14.8529 10.8255 14.9961 11.5938 14.9961C12.362 14.9961 13.0846 14.8529 13.7617 14.5664C14.4518 14.2669 15.0508 13.8633 15.5586 13.3555C16.0664 12.8477 16.4635 12.2552 16.75 11.5781C17.0495 10.888 17.1992 10.1589 17.1992 9.39062V0.992188H22.7852V9.39062C22.7852 10.6797 22.5768 11.9102 22.1602 13.082C21.7565 14.2409 21.1836 15.3021 20.4414 16.2656C19.6992 17.2161 18.8138 18.0365 17.7852 18.7266C16.7565 19.4167 15.6237 19.918 14.3867 20.2305V29ZM54.3867 20.9922C54.3867 22.151 54.1654 23.2448 53.7227 24.2734C53.293 25.2891 52.694 26.181 51.9258 26.9492C51.1706 27.7044 50.2786 28.3034 49.25 28.7461C48.2344 29.1758 47.1471 29.3906 45.9883 29.3906C44.9466 29.3906 43.944 29.2083 42.9805 28.8438C42.0299 28.4792 41.1706 27.9453 40.4023 27.2422C39.6341 27.9453 38.7682 28.4792 37.8047 28.8438C36.8411 29.2083 35.8385 29.3906 34.7969 29.3906C33.638 29.3906 32.5443 29.1758 31.5156 28.7461C30.5 28.3034 29.6081 27.7044 28.8398 26.9492C28.0846 26.181 27.4857 25.2891 27.043 24.2734C26.6133 23.2448 26.3984 22.151 26.3984 20.9922V0.992188H32.0039V20.9922C32.0039 21.3828 32.0755 21.7539 32.2188 22.1055C32.362 22.444 32.5573 22.7435 32.8047 23.0039C33.0651 23.2513 33.3646 23.4466 33.7031 23.5898C34.0417 23.7331 34.4062 23.8047 34.7969 23.8047C35.1875 23.8047 35.5521 23.7331 35.8906 23.5898C36.2292 23.4466 36.5221 23.2513 36.7695 23.0039C37.0299 22.7435 37.2318 22.444 37.375 22.1055C37.5182 21.7539 37.5898 21.3828 37.5898 20.9922V0.992188H43.1953V20.9922C43.1953 21.3828 43.2669 21.7539 43.4102 22.1055C43.5534 22.444 43.7487 22.7435 43.9961 23.0039C44.2565 23.2513 44.556 23.4466 44.8945 23.5898C45.2331 23.7331 45.5977 23.8047 45.9883 23.8047C46.3789 23.8047 46.7435 23.7331 47.082 23.5898C47.4206 23.4466 47.7135 23.2513 47.9609 23.0039C48.2214 22.7435 48.4232 22.444 48.5664 22.1055C48.7227 21.7539 48.8008 21.3828 48.8008 20.9922V0.992188H54.3867V20.9922Z" fill="white"/>
</svg>
